<svg width="12" height="14" viewBox="0 0 12 14" fill="none" xmlns="http://www.w3.org/2000/svg">
<path d="M11 1.33331L10 0.333313L9 1.33331L8 0.333313L7 1.33331L6 0.333313L5 1.33331L4 0.333313L3 1.33331L2 0.333313L1 1.33331L0 0.333313V13.6666L1 12.6666L2 13.6666L3 12.6666L4 13.6666L5 12.6666L6 13.6666L7 12.6666L8 13.6666L9 12.6666L10 13.6666L11 12.6666L12 13.6666V0.333313L11 1.33331ZM10.6667 11.7266H1.33333V2.27331H10.6667V11.7266ZM2 8.99998H10V10.3333H2V8.99998ZM2 6.33331H10V7.66665H2V6.33331ZM2 3.66665H10V4.99998H2V3.66665Z" fill="white"/>
</svg>
