<svg width="14" height="12" viewBox="0 0 14 12" fill="none" xmlns="http://www.w3.org/2000/svg">
<path d="M12.8 0.733284C11.4666 1.19995 9.59998 1.66662 6.99998 1.66662C4.39998 1.66662 2.39998 1.13328 1.19998 0.733284C0.79998 0.533284 0.333313 0.866617 0.333313 1.33328V10.6666C0.333313 11.1333 0.79998 11.4666 1.19998 11.3333C2.59998 10.8666 4.39998 10.3333 6.99998 10.3333C9.59998 10.3333 11.4666 10.8666 12.8 11.3333C13.2666 11.4666 13.6666 11.1333 13.6666 10.6666V1.33328C13.6666 0.866617 13.2 0.533284 12.8 0.733284ZM6.99998 7.99995C5.46665 7.99995 3.99998 8.06662 2.66665 8.26662L5.13331 5.33328L6.46665 6.93328L8.33331 4.66662L11.3333 8.26662C9.99998 8.06662 8.53331 7.99995 6.99998 7.99995Z" fill="white"/>
</svg>
