<svg width="14" height="14" viewBox="0 0 14 14" fill="none" xmlns="http://www.w3.org/2000/svg">
<path d="M10.3333 13.6666V12.3333H12.3333V10.3333H13.6666V12.6666C13.6666 12.9266 13.56 13.16 13.36 13.36C13.16 13.56 12.9266 13.6666 12.6666 13.6666H10.3333ZM3.66665 13.6666H1.33331C1.07331 13.6666 0.83998 13.56 0.63998 13.36C0.43998 13.16 0.333313 12.9266 0.333313 12.6666V10.3333H1.66665V12.3333H3.66665V13.6666ZM10.3333 0.333313H12.6666C12.9266 0.333313 13.16 0.43998 13.36 0.63998C13.56 0.83998 13.6666 1.07331 13.6666 1.33331V3.66665H12.3333V1.66665H10.3333V0.333313ZM3.66665 0.333313V1.66665H1.66665V3.66665H0.333313V1.33331C0.333313 1.07331 0.43998 0.83998 0.63998 0.63998C0.83998 0.43998 1.07331 0.333313 1.33331 0.333313H3.66665ZM7.66665 10.5L10.3333 8.96665V5.90665L7.66665 7.43998V10.5ZM6.99998 6.27998L9.66665 4.75331L6.99998 3.18665L4.33331 4.75331L6.99998 6.27998ZM3.66665 8.96665L6.33331 10.5V7.43998L3.66665 5.90665V8.96665ZM11.1533 4.05998C11.4866 4.27331 11.6666 4.55998 11.6666 4.93998V9.15331C11.6666 9.53331 11.4866 9.81998 11.1533 10.0333L7.49998 12.1533C7.16665 12.3666 6.83331 12.3666 6.49998 12.1533L2.84665 10.0333C2.51331 9.81998 2.33331 9.53331 2.33331 9.15331V4.93998C2.33331 4.55998 2.51331 4.27331 2.84665 4.05998L6.49998 1.93998C6.66665 1.85331 6.83331 1.81331 6.99998 1.81331C7.16665 1.81331 7.33331 1.85331 7.49998 1.93998L11.1533 4.05998Z" fill="white"/>
</svg>
