<svg width="16" height="13" viewBox="0 0 16 13" fill="none" xmlns="http://www.w3.org/2000/svg">
<path d="M3.66669 13C3.14669 13 2.69335 12.7 2.47335 12.2667L0.733354 5.96004L0.666687 5.66671C0.666687 5.4899 0.736925 5.32033 0.861949 5.1953C0.986973 5.07028 1.15654 5.00004 1.33335 5.00004H4.38669L7.45335 0.620041C7.57335 0.446707 7.77335 0.333374 8.00002 0.333374C8.22669 0.333374 8.43335 0.446707 8.55335 0.626707L11.6134 5.00004H14.6667C14.8435 5.00004 15.0131 5.07028 15.1381 5.1953C15.2631 5.32033 15.3334 5.4899 15.3334 5.66671L15.3067 5.86004L13.5267 12.2667C13.3067 12.7 12.8534 13 12.3334 13H3.66669ZM8.00002 2.16004L6.00002 5.00004H10L8.00002 2.16004ZM8.00002 7.66671C7.6464 7.66671 7.30726 7.80718 7.05721 8.05723C6.80716 8.30728 6.66669 8.64642 6.66669 9.00004C6.66669 9.35366 6.80716 9.6928 7.05721 9.94285C7.30726 10.1929 7.6464 10.3334 8.00002 10.3334C8.35364 10.3334 8.69278 10.1929 8.94283 9.94285C9.19288 9.6928 9.33335 9.35366 9.33335 9.00004C9.33335 8.64642 9.19288 8.30728 8.94283 8.05723C8.69278 7.80718 8.35364 7.66671 8.00002 7.66671Z" fill="white"/>
</svg>
